<svg width="0" height="0" class="hidden">
  <symbol xmlns="http://www.w3.org/2000/svg" viewBox="0 0 24 24" id="f">
    <path d="M24 12c0-6.628-5.372-12-12-12S0 5.372 0 12s5.372 12 12 12c.07 0 .14 0 .21-.005v-9.337H9.634v-3.005h2.578V9.441c0-2.564 1.566-3.961 3.853-3.961 1.097 0 2.04.08 2.311.117v2.681H16.8c-1.242 0-1.486.59-1.486 1.458v1.912h2.977l-.39 3.005h-2.587v8.883C20.33 22.096 24 17.48 24 12z"></path>
  </symbol>
  <symbol xmlns="http://www.w3.org/2000/svg" viewBox="0 0 68 68" id="feat-1">
    <path d="M46.536 8H40V4H28v4h-6.536A3.468 3.468 0 0018 11.464v49.072A3.468 3.468 0 0021.464 64h25.072A3.468 3.468 0 0050 60.536V11.464A3.468 3.468 0 0046.536 8zM20 23h28v12H20V23zm0 14h28v12H20V37zM30 6h8v2h-8V6zm-8.536 4h25.072c.808 0 1.464.656 1.464 1.464V21H20v-9.536c0-.808.656-1.464 1.464-1.464zm25.072 52H21.464A1.465 1.465 0 0120 60.536V51h28v9.536c0 .808-.656 1.464-1.464 1.464z"></path>
  </symbol>
  <symbol xmlns="http://www.w3.org/2000/svg" viewBox="0 0 68 68" id="feat-2">
    <g clip-path="url(#clip0)">
      <path d="M36.404 11.413a3.029 3.029 0 00-3.09.044.929.929 0 00-.13.093l-13.55 11.463H9a1 1 0 00-1 1v19a1.002 1.002 0 001 1l10.61-.005 13.543 12.44c.05.046.104.086.161.12a3.055 3.055 0 001.582.446 3.07 3.07 0 001.508-.402A3.122 3.122 0 0038 53.857V14.169a3.125 3.125 0 00-1.596-2.756zM36 53.857c0 .431-.217.81-.579 1.015a1.049 1.049 0 01-1 .026L21 42.569v-4.556a1 1 0 10-2 0v3.996l-9 .004v-17h9v4a1 1 0 102 0v-4.536l13.405-11.34c.461-.242.86-.07 1.016.018.362.205.579.584.579 1.014v39.688zm10.797-38.791a1.002 1.002 0 00-.643 1.895 17.48 17.48 0 0111.872 16.553 17.492 17.492 0 01-11.849 16.554 1 1 0 00.646 1.893 19.489 19.489 0 0013.202-18.446 19.478 19.478 0 00-13.228-18.449z"></path>
      <path d="M51.026 33.513c0-5.972-4.009-11.302-9.749-12.962a1 1 0 00-.554 1.922c4.889 1.413 8.304 5.953 8.304 11.04 0 5.087-3.415 9.627-8.304 11.04a1 1 0 00.554 1.922c5.741-1.66 9.749-6.99 9.749-12.962z"></path>
    </g>
    <defs>
      <clipPath id="clip0">
        <path></path>
      </clipPath>
    </defs>
  </symbol>
  <symbol xmlns="http://www.w3.org/2000/svg" viewBox="0 0 68 68" id="feat-3">
    <path d="M35.634 41.989a3.558 3.558 0 002.606-1.459l9.363-12.944a1 1 0 00-1.397-1.397L33.26 35.555a3.557 3.557 0 00-1.456 2.604 3.56 3.56 0 001.033 2.797 3.554 3.554 0 002.797 1.033zm-1.836-3.674a1.56 1.56 0 01.637-1.142l7.897-5.713-5.711 7.895a1.565 1.565 0 01-2.371.187 1.564 1.564 0 01-.452-1.227z"></path>
    <path d="M58.034 23.564c-.01-.021-.01-.043-.021-.064-.012-.02-.031-.031-.044-.05a27.185 27.185 0 00-3.565-4.809l2.148-2.147 1.414 1.414 4.242-4.243-4.242-4.242-4.243 4.242 1.415 1.415-2.148 2.147a27.154 27.154 0 00-4.809-3.566c-.019-.013-.03-.032-.05-.044-.021-.012-.043-.011-.064-.022a26.81 26.81 0 00-10.273-3.404V9h1.5c1.379 0 2.5-1.121 2.5-2.5S40.672 4 39.293 4h-9a2.502 2.502 0 00-2.5 2.5c0 1.379 1.121 2.5 2.5 2.5h1.5v1.156c-1.08.115-2.158.291-3.224.535a1 1 0 10.447 1.949 25.43 25.43 0 012.78-.477l1.073-.083c.328-.025.63-.043.924-.057V14a1 1 0 102 0v-1.97a24.805 24.805 0 0110.456 2.845l-.986 1.707a1 1 0 001.732 1l.983-1.703a25.194 25.194 0 017.772 7.772l-1.703.983a1 1 0 001.002 1.732l1.707-.986a24.82 24.82 0 012.849 10.619H57.63a1 1 0 100 2h1.975a24.82 24.82 0 01-2.849 10.619l-1.707-.986a1 1 0 00-1 1.732l1.703.983a25.194 25.194 0 01-7.772 7.772l-.983-1.703a.998.998 0 00-1.366-.366.999.999 0 00-.366 1.366l.986 1.707a24.805 24.805 0 01-10.456 2.845V60a1 1 0 10-2 0v1.976a25.235 25.235 0 01-4.776-.617.996.996 0 00-1.198.751 1 1 0 00.751 1.198c1.996.46 4.035.692 6.058.692.049 0 .096-.003.145-.004.007 0 .012.004.018.004.008 0 .015-.005.023-.005a26.825 26.825 0 0013.219-3.573c.031-.014.064-.021.094-.039.02-.012.031-.031.05-.044a27.197 27.197 0 009.773-9.761c.019-.027.043-.048.06-.078.012-.021.011-.043.021-.064A26.808 26.808 0 0061.63 37c0-4.89-1.313-9.476-3.596-13.436zm-.069-11.313l1.414 1.414-1.414 1.415-1.415-1.415 1.415-1.414zm-24.172-2.23V7h-3.5a.501.501 0 01-.5-.5c0-.275.225-.5.5-.5h9c.275 0 .5.225.5.5s-.225.5-.5.5h-3.5v3.021c-.348-.014-.68-.021-1-.021l-.088.002L34.63 10c-.164 0-.328.011-.492.014-.116.003-.225.002-.345.007zm-8 7.979h-5a1 1 0 100 2h5a1 1 0 100-2zm0 7h-10a1 1 0 100 2h10a1 1 0 100-2zm0 7h-15a1 1 0 100 2h15a1 1 0 100-2zm0 7h-19a1 1 0 100 2h19a1 1 0 100-2zm0 7h-13a1 1 0 100 2h13a1 1 0 100-2zm0 7h-7a1 1 0 100 2h7a1 1 0 100-2z"></path>
  </symbol>
  <symbol xmlns="http://www.w3.org/2000/svg" viewBox="0 0 24 24" id="in">
    <path d="M14.297 12A2.295 2.295 0 0112 14.297 2.295 2.295 0 019.703 12 2.295 2.295 0 0112 9.703 2.295 2.295 0 0114.297 12z"></path>
    <path d="M17.372 7.936a2.13 2.13 0 00-.516-.792 2.13 2.13 0 00-.792-.516c-.244-.094-.61-.206-1.28-.239-.726-.033-.947-.042-2.784-.042-1.842 0-2.058.005-2.784.042-.67.033-1.036.145-1.28.24-.3.112-.572.285-.792.515-.23.22-.403.492-.516.792-.094.244-.206.61-.239 1.28-.033.726-.042.942-.042 2.784 0 1.838.01 2.058.042 2.784.033.67.14 1.036.24 1.28.112.3.285.572.515.792.22.23.492.403.792.516.244.094.61.206 1.28.239.726.033.942.042 2.784.042 1.842 0 2.058-.005 2.784-.042.67-.033 1.036-.14 1.28-.24a2.273 2.273 0 001.308-1.307c.094-.244.206-.61.239-1.28.033-.726.042-.947.042-2.784 0-1.842-.005-2.058-.042-2.784-.033-.67-.145-1.036-.24-1.28zM12 15.539a3.539 3.539 0 110-7.078 3.539 3.539 0 010 7.078zm3.68-6.389a.826.826 0 010-1.65.826.826 0 010 1.65z"></path>
    <path d="M12 0C5.372 0 0 5.372 0 12s5.372 12 12 12 12-5.372 12-12S18.628 0 12 0zm6.848 14.84c-.032.732-.15 1.233-.318 1.674a3.514 3.514 0 01-2.016 2.016c-.436.168-.937.286-1.673.318-.736.033-.97.043-2.841.043-1.87 0-2.105-.01-2.84-.043-.732-.032-1.233-.15-1.674-.318a3.355 3.355 0 01-1.219-.797 3.355 3.355 0 01-.797-1.219c-.168-.436-.286-.937-.318-1.673-.033-.736-.043-.97-.043-2.841 0-1.87.01-2.105.043-2.84.032-.732.15-1.233.318-1.674.174-.46.446-.877.797-1.219.342-.351.76-.623 1.219-.797.44-.168.937-.286 1.673-.318.736-.033.97-.043 2.841-.043 1.87 0 2.105.01 2.84.043.732.032 1.233.15 1.674.318.46.174.877.446 1.219.797.351.342.623.76.797 1.219.168.44.286.937.318 1.673.033.736.043.97.043 2.841 0 1.87-.01 2.105-.043 2.84z"></path>
  </symbol>
  <symbol xmlns="http://www.w3.org/2000/svg" viewBox="0 0 52 52" id="main-1">
    <g clip-path="url(#clip0)">
      <path d="M15.97 1C7.717 1 1 8.276 1 17.26a12.052 12.052 0 001.658 5.917c.498.85.925 1.741 1.275 2.662.233.677.01 1.427-.555 1.866a4.117 4.117 0 00-1.546 3.237 4.159 4.159 0 001.824 3.453c.411.28.661.74.67 1.238v6.952c0 4.587 3.358 8.318 7.486 8.318s7.486-3.731 7.486-8.318a11.696 11.696 0 014.075-8.916 21.067 21.067 0 007.569-16.45C30.942 8.275 24.226 1 15.97 1zm6.322 31.406a13.354 13.354 0 00-4.658 10.18c0 3.668-2.612 6.653-5.822 6.653S5.99 46.254 5.99 42.585v-6.952a3.22 3.22 0 00-1.36-2.586 2.505 2.505 0 01-1.135-2.105 2.461 2.461 0 01.948-1.96 3.327 3.327 0 001.053-3.715 19.352 19.352 0 00-1.395-2.911 10.431 10.431 0 01-1.438-5.138c0-8.025 5.97-14.555 13.308-14.555 7.337 0 13.307 6.53 13.307 14.555a19.454 19.454 0 01-6.986 15.188z"></path>
      <path d="M15.97 5.159c-4.634 0-8.587 3.286-10.121 7.88-.011.028-.018.055-.027.084a13.307 13.307 0 00-.665 4.134c0 .998 0 4.05 1.907 5.957a.832.832 0 001.176-1.176 5.088 5.088 0 01-1.26-2.72c.135-.008.267-.019.406-.019 3.817-.001 6.921 3.492 6.921 7.783 0 .399-.019.773-.05 1.142-.414.442-.854.86-1.319 1.248a9.911 9.911 0 00-3.62 8.123.832.832 0 001.662 0 8.256 8.256 0 013.033-6.85 11.406 11.406 0 004.453-9.485c0-5.206-3.918-9.448-8.733-9.448a8.044 8.044 0 00-1.646.175 9.007 9.007 0 017.884-5.165c5.044 0 9.148 4.68 9.148 10.433a15.163 15.163 0 01-5.357 11.786c-.115.099-.242.206-.38.321-1.655 1.376-5.098 4.242-5.901 11.469a.832.832 0 00.735.914c.03.005.06.008.091.009.424 0 .78-.32.826-.74.73-6.563 3.71-9.042 5.312-10.374.147-.123.282-.236.404-.34a16.786 16.786 0 005.934-13.045c0-6.67-4.85-12.096-10.812-12.096zm-6.237 8.317c3.898 0 7.07 3.493 7.07 7.784a10.624 10.624 0 01-.915 4.575c-.559-4.625-4.153-8.2-8.5-8.2-.193 0-.377.013-.563.027v-.407c0-1.112.16-2.219.473-3.286a6.333 6.333 0 012.435-.493zm32.852 6.654a9.8 9.8 0 013.087-6.904.832.832 0 10-1.183-1.164 11.424 11.424 0 00-3.567 8.067 11.424 11.424 0 003.567 8.068.832.832 0 101.183-1.165 9.8 9.8 0 01-3.087-6.903z"></path>
      <path d="M48.129 15.35a.832.832 0 00-1.175.068 6.86 6.86 0 000 9.423.832.832 0 101.243-1.106 5.2 5.2 0 010-7.211.832.832 0 00-.068-1.175z"></path>
      <path d="M50.689 17.91a.832.832 0 00-1.175-.062 2.904 2.904 0 000 4.563.832.832 0 101.113-1.236 1.485 1.485 0 01-.556-1.046c.032-.41.234-.789.556-1.045a.832.832 0 00.062-1.174zm-12.262 2.22c0-3.66 1.64-7.197 4.74-10.217a.833.833 0 10-1.164-1.191c-3.426 3.34-5.24 7.284-5.24 11.407s1.814 8.068 5.24 11.408a.833.833 0 101.165-1.191c-3.102-3.02-4.741-6.557-4.741-10.217z"></path>
      <path d="M34.268 20.13c0-4.57 1.932-8.971 5.587-12.726a.833.833 0 00-1.193-1.164c-3.962 4.075-6.057 8.878-6.057 13.89 0 5.01 2.095 9.814 6.057 13.889a.833.833 0 101.193-1.165C36.2 29.1 34.268 24.7 34.268 20.13z"></path>
    </g>
    <defs>
      <clipPath id="clip0">
        <path></path>
      </clipPath>
    </defs>
  </symbol>
  <symbol xmlns="http://www.w3.org/2000/svg" viewBox="0 0 52 52" id="main-2">
    <path d="M34.283 6H17.717A3.32 3.32 0 0014.4 9.317v37.366A3.32 3.32 0 0017.717 50h16.566a3.32 3.32 0 003.317-3.317V9.317A3.32 3.32 0 0034.283 6zM36 46.683a1.72 1.72 0 01-1.717 1.717H17.717A1.72 1.72 0 0116 46.683V9.317c0-.947.77-1.717 1.717-1.717h16.566C35.23 7.6 36 8.37 36 9.317v37.366z"></path>
    <path d="M30.4 2h-8.8a.8.8 0 00-.8.8v4a.8.8 0 00.8.8h8.8a.8.8 0 00.8-.8v-4a.8.8 0 00-.8-.8zm-.8 4h-7.2V3.6h7.2V6zm2.275 17.97a.799.799 0 00-.675-.37h-4.8v-7.2a.8.8 0 00-1.525-.338l-5.6 12A.8.8 0 0020 29.2h4.8v7.2a.8.8 0 001.525.338l5.6-12a.8.8 0 00-.05-.768zM24.8 27.6h-3.544l3.544-7.594V27.6zm1.6 5.194V25.2h3.544L26.4 32.794z"></path>
  </symbol>
  <symbol xmlns="http://www.w3.org/2000/svg" viewBox="0 0 52 52" id="main-3">
    <path d="M38.8 12.4h-2.4v-8C36.4 3.04 35.36 2 34 2c-1.36 0-2.4 1.04-2.4 2.4v8H20.4v-8C20.4 3.04 19.36 2 18 2c-1.36 0-2.4 1.04-2.4 2.4v8h-2.4c-.48 0-.8.32-.8.8v6.08c0 4 1.52 7.84 4.24 10.8 2.4 2.72 3.76 6.24 3.76 9.84V42c0 2.24 1.76 4 4 4h.8v3.2c0 .48.32.8.8.8.48 0 .8-.32.8-.8V46h.8c2.24 0 4-1.76 4-4v-2c0-3.68 1.28-7.12 3.76-9.84 2.72-2.96 4.24-6.88 4.24-10.88V13.2c0-.48-.32-.8-.8-.8zm-5.6-8c0-.48.32-.8.8-.8.48 0 .8.32.8.8v8h-1.6v-8zm-16 0c0-.4.32-.8.8-.8.48 0 .8.32.8.8v8h-1.6v-8zM38 19.2c0 3.68-1.28 7.12-3.76 9.84A16.154 16.154 0 0030 39.92V42c0 1.36-1.04 2.4-2.4 2.4h-3.2c-1.36 0-2.4-1.04-2.4-2.4v-2c0-4-1.52-7.92-4.24-10.88-2.4-2.72-3.76-6.24-3.76-9.84V14h24v5.2z"></path>
    <path d="M29.2 22.8h-4.48l4.24-4.24c.32-.32.32-.8 0-1.12a.773.773 0 00-1.12 0l-5.6 5.6c-.24.24-.32.56-.16.88.08.32.4.48.72.48h4.48l-4.24 4.24c-.32.32-.32.8 0 1.12.16.16.32.24.56.24.24 0 .4-.08.56-.24l5.6-5.6c.24-.24.32-.56.16-.88-.08-.32-.4-.48-.72-.48z"></path>
  </symbol>
  <symbol xmlns="http://www.w3.org/2000/svg" viewBox="0 0 76 95" id="marker">
    <path d="M38 0C24.783 0 0 10 0 38.333 0 66.667 38 95 38 95s38-28.333 38-56.667C76 10 51.217 0 38 0z"></path>
    <path d="M38 44c3.3 0 6-2.7 6-6s-2.7-6-6-6-6 2.7-6 6 2.7 6 6 6zm0-26c-2 0-4.1.3-6 .9V30c4.4-3.3 10.7-2.4 14 2 3.3 4.4 2.4 10.7-2 14-4.4 3.3-10.7 2.4-14-2-1.3-1.7-2-3.8-2-6V20.7c-9.6 5.5-12.8 17.7-7.3 27.3 5.5 9.6 17.7 12.8 27.3 7.3 9.6-5.5 12.8-17.7 7.3-27.3-3.5-6.2-10.1-10-17.3-10z"></path>
  </symbol>
  <symbol xmlns="http://www.w3.org/2000/svg" viewBox="0 0 24 24" id="tg">
    <path d="M12 24c6.628 0 12-5.372 12-12S18.628 0 12 0 0 5.372 0 12s5.372 12 12 12zM5.49 11.742L17.061 7.28c.54-.192 1.008.13.83.942l-1.969 9.281c-.145.656-.539.82-1.082.506l-3-2.212-1.449 1.392c-.16.16-.295.295-.604.295l.21-3.051 5.565-5.02c.243-.211-.057-.333-.376-.122l-6.871 4.326-2.963-.923c-.642-.207-.656-.642.136-.952z"></path>
  </symbol>
  <symbol xmlns="http://www.w3.org/2000/svg" viewBox="0 0 24 24" id="phone">
    <path d="M23.948 18.596c-.068-.205-.5-.506-1.295-.904a39.775 39.775 0 00-.92-.511 85.168 85.168 0 01-1.083-.597 36.067 36.067 0 01-.912-.528 22.128 22.128 0 00-.426-.298 4.786 4.786 0 00-.605-.367 1.117 1.117 0 00-.486-.12c-.227 0-.51.163-.852.487-.34.324-.653.676-.937 1.057-.284.38-.585.732-.903 1.056-.318.324-.58.486-.784.486a1.16 1.16 0 01-.384-.085 3.991 3.991 0 01-.35-.144 6.374 6.374 0 01-.408-.24 15.886 15.886 0 00-.324-.196c-1.557-.863-2.892-1.852-4.006-2.965-1.113-1.114-2.102-2.45-2.966-4.006a9.956 9.956 0 00-.196-.324 6.125 6.125 0 01-.239-.41 3.692 3.692 0 01-.144-.349 1.153 1.153 0 01-.086-.383c0-.205.162-.466.486-.784.324-.318.677-.62 1.057-.903.38-.284.733-.597 1.057-.938.324-.34.486-.625.486-.852 0-.159-.04-.32-.12-.486a4.738 4.738 0 00-.366-.605c-.165-.238-.264-.38-.299-.426-.17-.284-.346-.588-.528-.912-.182-.324-.38-.685-.597-1.082a40.51 40.51 0 00-.51-.92C5.91.55 5.607.119 5.403.05A.955.955 0 005.046 0c-.307 0-.707.057-1.202.17-.494.114-.883.233-1.167.358-.569.239-1.17.932-1.807 2.08C.29 3.676 0 4.733 0 5.778c0 .307.02.605.06.895.04.29.111.616.213.98.103.364.185.634.247.81.063.176.18.49.35.946.17.454.272.732.307.835a15.44 15.44 0 001.414 2.983c.897 1.454 2.122 2.957 3.673 4.508 1.551 1.551 3.054 2.776 4.509 3.674.875.545 1.87 1.016 2.983 1.414.102.034.38.136.835.307.454.17.77.287.946.35.176.062.446.145.809.247.364.102.69.174.98.214.29.039.588.06.895.06 1.045 0 2.102-.29 3.17-.87 1.148-.637 1.841-1.239 2.08-1.807.125-.284.244-.673.358-1.168.114-.494.17-.894.17-1.201a.951.951 0 00-.05-.36z"></path>
  </symbol>
  <symbol xmlns="http://www.w3.org/2000/svg" viewBox="0 0 24 24" id="vk">
    <path d="M12 0C5.374 0 0 5.374 0 12s5.374 12 12 12 12-5.374 12-12S18.626 0 12 0zm6.086 13.3c.564.54 1.153 1.056 1.644 1.67.22.27.442.54.589.858.22.442.025.933-.368.957h-2.454c-.638.05-1.129-.196-1.57-.638a20.431 20.431 0 01-.982-1.08 1.694 1.694 0 00-.442-.392c-.344-.221-.638-.147-.81.196-.196.368-.245.76-.27 1.153-.024.59-.196.737-.785.761-1.252.05-2.43-.122-3.51-.76-.956-.565-1.717-1.326-2.355-2.209-1.276-1.718-2.233-3.607-3.117-5.546-.196-.442-.049-.663.442-.687a39.29 39.29 0 012.405 0c.32 0 .54.196.663.49.441 1.056.957 2.086 1.62 3.019.171.245.367.49.613.687.294.197.49.123.638-.196.073-.197.122-.417.147-.638a8.322 8.322 0 00-.049-2.209c-.074-.49-.319-.785-.785-.883-.246-.05-.197-.123-.098-.27.196-.221.392-.368.76-.368h2.773c.442.098.54.27.59.711v3.092c0 .172.073.688.392.786.245.073.417-.123.564-.27.663-.712 1.13-1.546 1.57-2.405.197-.393.344-.785.516-1.178.123-.295.295-.442.638-.442h2.675a.92.92 0 01.245.025c.442.073.565.27.442.711-.22.688-.638 1.276-1.055 1.84-.442.614-.933 1.203-1.374 1.841-.442.59-.417.884.098 1.375z"></path>
  </symbol>
</svg>